<svg xmlns="http://www.w3.org/2000/svg" xmlns:svg="http://www.w3.org/2000/svg" xmlns:xlink="http://www.w3.org/1999/xlink" id="svg11300" width="18" height="18" version="1.0"><defs id="defs3"><linearGradient id="linearGradient2250"><stop style="stop-color:#fff;stop-opacity:1" id="stop2252" offset="0"/><stop style="stop-color:#fff;stop-opacity:0" id="stop2254" offset="1"/></linearGradient><linearGradient id="linearGradient2265"><stop style="stop-color:#000;stop-opacity:1" id="stop2267" offset="0"/><stop style="stop-color:#000;stop-opacity:0" id="stop2269" offset="1"/></linearGradient><linearGradient id="linearGradient2257"><stop style="stop-color:#fff;stop-opacity:1" id="stop2259" offset="0"/><stop style="stop-color:#fff;stop-opacity:0" id="stop2261" offset="1"/></linearGradient><linearGradient id="linearGradient3087"><stop style="stop-color:#3465a4;stop-opacity:1" id="stop3089" offset="0"/><stop id="stop3095" offset="0" style="stop-color:#9fbce1;stop-opacity:1"/><stop style="stop-color:#6b95ca;stop-opacity:1" id="stop2242" offset="0"/><stop id="stop2244" offset=".75" style="stop-color:#3d6aa5;stop-opacity:1"/><stop style="stop-color:#386eb4;stop-opacity:1" id="stop3091" offset="1"/></linearGradient><linearGradient id="linearGradient3077"><stop style="stop-color:#98a0a9;stop-opacity:1" id="stop3079" offset="0"/><stop style="stop-color:#c3d0dd;stop-opacity:1" id="stop3081" offset="1"/></linearGradient><linearGradient id="linearGradient3061"><stop style="stop-color:#fff;stop-opacity:1" id="stop3063" offset="0"/><stop style="stop-color:#000;stop-opacity:1" id="stop3065" offset="1"/></linearGradient><linearGradient id="linearGradient3049"><stop style="stop-color:#b6b6b6;stop-opacity:1" id="stop3051" offset="0"/><stop id="stop2262" offset=".5" style="stop-color:#f2f2f2;stop-opacity:1"/><stop style="stop-color:#fafafa;stop-opacity:1" id="stop2264" offset=".676"/><stop id="stop2268" offset=".841" style="stop-color:#d8d8d8;stop-opacity:1"/><stop id="stop2266" offset=".875" style="stop-color:#f2f2f2;stop-opacity:1"/><stop style="stop-color:#dbdbdb;stop-opacity:1" id="stop3053" offset="1"/></linearGradient><linearGradient id="linearGradient3041"><stop style="stop-color:#000;stop-opacity:1" id="stop3043" offset="0"/><stop style="stop-color:#000;stop-opacity:0" id="stop3045" offset="1"/></linearGradient><radialGradient id="radialGradient2447" cx="24.813" cy="39.125" r="17.688" fx="24.813" fy="39.125" gradientTransform="matrix(1,0,0,0.374558,0,24.47041)" gradientUnits="userSpaceOnUse" xlink:href="#linearGradient3041"/><radialGradient id="radialGradient2449" cx="24.813" cy="39.125" r="17.688" fx="24.813" fy="39.125" gradientTransform="matrix(1,0,0,0.374558,0,24.47041)" gradientUnits="userSpaceOnUse" xlink:href="#linearGradient3041"/><linearGradient id="linearGradient2451" x1="19.648" x2="20.631" y1="42.254" y2="6.776" gradientTransform="matrix(0.87827,0,0,0.87827,2.536988,4.967681)" gradientUnits="userSpaceOnUse" xlink:href="#linearGradient3049"/><linearGradient id="linearGradient2453" x1="50.153" x2="25.291" y1="-3.632" y2="-4.3" gradientTransform="matrix(0.87827,0,0,0.87827,5.328299,1.650243)" gradientUnits="userSpaceOnUse" xlink:href="#linearGradient3061"/><linearGradient id="linearGradient2455" x1="38.228" x2="37.535" y1="13.603" y2="6.629" gradientTransform="matrix(0.87827,0,0,0.87827,2.847503,5.588712)" gradientUnits="userSpaceOnUse" xlink:href="#linearGradient3077"/><linearGradient id="linearGradient2457" x1="31.177" x2="40.859" y1="19.822" y2="9.657" gradientUnits="userSpaceOnUse" xlink:href="#linearGradient2250"/><linearGradient id="linearGradient2459" x1="9.75" x2="16.915" y1="32.284" y2="39.443" gradientTransform="matrix(0.87827,0,0,0.87827,2.536988,4.967681)" gradientUnits="userSpaceOnUse" xlink:href="#linearGradient3087"/><linearGradient id="linearGradient2461" x1="12.005" x2="10.651" y1="35.688" y2="33.195" gradientTransform="matrix(1.007254,-2.636526e-2,2.636526e-2,1.007254,1.593411,7.9191e-2)" gradientUnits="userSpaceOnUse" xlink:href="#linearGradient2257"/><linearGradient id="linearGradient2463" x1="14.018" x2="15.416" y1="36.943" y2="38.268" gradientTransform="matrix(0.878099,-1.73237e-2,1.73237e-2,0.878099,2.163687,4.067899)" gradientUnits="userSpaceOnUse" xlink:href="#linearGradient2265"/><linearGradient id="linearGradient2466" x1="14.018" x2="15.416" y1="36.943" y2="38.268" gradientTransform="matrix(0.3200671,-6.3144886e-3,6.3144886e-3,0.3200671,1.210453,0.7542151)" gradientUnits="userSpaceOnUse" xlink:href="#linearGradient2265"/><linearGradient id="linearGradient2470" x1="12.005" x2="10.651" y1="35.688" y2="33.195" gradientTransform="matrix(0.3671441,-9.6101373e-3,9.6101373e-3,0.3671441,1.0025874,-0.699669)" gradientUnits="userSpaceOnUse" xlink:href="#linearGradient2257"/><linearGradient id="linearGradient2475" x1="9.75" x2="16.915" y1="32.284" y2="39.443" gradientTransform="matrix(0.3201294,0,0,0.3201294,1.3465212,1.0821856)" gradientUnits="userSpaceOnUse" xlink:href="#linearGradient3087"/><linearGradient id="linearGradient2478" x1="31.177" x2="40.859" y1="19.822" y2="9.657" gradientTransform="matrix(0.3645,0,0,0.3645,0.4217891,-0.7285341)" gradientUnits="userSpaceOnUse" xlink:href="#linearGradient2250"/><linearGradient id="linearGradient2481" x1="38.228" x2="37.535" y1="13.603" y2="6.629" gradientTransform="matrix(0.3201294,0,0,0.3201294,1.4597039,1.3085514)" gradientUnits="userSpaceOnUse" xlink:href="#linearGradient3077"/><linearGradient id="linearGradient2484" x1="50.153" x2="25.291" y1="-3.632" y2="-4.3" gradientTransform="matrix(0.3201294,0,0,0.3201294,1.7148018,-0.2090259)" gradientUnits="userSpaceOnUse" xlink:href="#linearGradient3061"/><linearGradient id="linearGradient2488" x1="19.648" x2="20.631" y1="42.254" y2="6.776" gradientTransform="matrix(0.3201294,0,0,0.3201294,1.3465212,1.0821856)" gradientUnits="userSpaceOnUse" xlink:href="#linearGradient3049"/></defs><metadata id="metadata4"/><g id="layer1"><path id="path2258" d="M 42.5,39.125 A 17.6875,6.625 0 1 1 7.125,39.125 A 17.6875,6.625 0 1 1 42.5,39.125 z" transform="matrix(0.2737825,0,0,0.2109372,6.6331862,6.3294288)" style="opacity:.19886367;fill:url(#radialGradient2447);fill-opacity:1;fill-rule:nonzero;stroke:none;stroke-width:1;stroke-linecap:butt;stroke-linejoin:miter;marker:none;marker-start:none;marker-mid:none;marker-end:none;stroke-miterlimit:4;stroke-dasharray:none;stroke-dashoffset:0;stroke-opacity:1;visibility:visible;display:inline;overflow:visible"/><path style="opacity:.3125;fill:url(#radialGradient2449);fill-opacity:1;fill-rule:nonzero;stroke:none;stroke-width:1;stroke-linecap:butt;stroke-linejoin:miter;marker:none;marker-start:none;marker-mid:none;marker-end:none;stroke-miterlimit:4;stroke-dasharray:none;stroke-dashoffset:0;stroke-opacity:1;visibility:visible;display:inline;overflow:visible" id="path3039" d="M 42.5,39.125 A 17.6875,6.625 0 1 1 7.125,39.125 A 17.6875,6.625 0 1 1 42.5,39.125 z" transform="matrix(0.3047479,0,0,0.2498414,-2.4794877,5.0006076)"/><path style="fill:url(#linearGradient2488);fill-opacity:1;fill-rule:nonzero;stroke:#888a85;stroke-width:.3644999;stroke-linecap:butt;stroke-linejoin:miter;marker:none;marker-start:none;marker-mid:none;marker-end:none;stroke-miterlimit:4;stroke-dasharray:none;stroke-dashoffset:0;stroke-opacity:1;visibility:visible;display:inline;overflow:visible" id="path2140" d="M 6.948786,7.0045798 L 13.871585,14.087443 C 14.151698,14.407573 15.039264,14.654992 15.632296,14.087443 C 16.204972,13.539376 16.072474,12.766909 15.512248,12.206683 L 8.8695625,5.0838033 C 9.6896875,2.8056783 8.0297949,0.89221078 5.8883574,1.3022733 L 5.4281711,1.7224431 L 6.8687535,3.0829932 L 6.948786,4.2834798 L 5.8732041,5.2652981 L 4.5878316,5.1238196 L 3.2672979,3.8833182 C 3.2672979,3.8833182 2.8043387,4.3407307 2.8043387,4.3407307 C 2.5890054,6.3969907 4.7390047,8.2347673 6.948786,7.0045798 z"/><path id="path3057" d="M 7.0255759,6.5396323 L 14.025026,13.839697 C 14.24187,14.087518 14.92896,14.279052 15.388043,13.839697 C 15.831367,13.415423 15.728797,12.817435 15.29511,12.383748 L 8.5549465,5.2318366 C 9.1016965,2.8625866 7.8774183,1.5851462 6.0549183,1.6307087 L 5.9564555,1.7303546 L 7.2697209,2.9099738 L 7.3171665,4.4342377 L 5.9998937,5.6365348 L 4.4535732,5.4695176 L 3.2957089,4.3791228 L 3.1671727,4.5358793 C 3.0532664,6.7114886 5.5334041,7.7014761 7.0255759,6.5396323 z" style="opacity:.42613639;fill:none;fill-opacity:1;fill-rule:nonzero;stroke:#fff;stroke-width:.36449969;stroke-linecap:butt;stroke-linejoin:miter;marker:none;marker-start:none;marker-mid:none;marker-end:none;stroke-miterlimit:4;stroke-dasharray:none;stroke-dashoffset:0;stroke-opacity:1;visibility:visible;display:inline;overflow:visible"/><rect style="opacity:.17045456;fill:none;fill-opacity:1;fill-rule:nonzero;stroke:url(#linearGradient2484);stroke-width:.36449894;stroke-linecap:butt;stroke-linejoin:miter;marker:none;marker-start:none;marker-mid:none;marker-end:none;stroke-miterlimit:4;stroke-dasharray:none;stroke-dashoffset:0;stroke-opacity:1;visibility:visible;display:inline;overflow:visible" id="rect3059" width="8.481" height=".749" x="10.046" y="-1.765" rx=".322" ry=".322" transform="matrix(0.6979381,0.7161581,-0.7161581,0.6979381,0,0)"/><path style="fill:url(#linearGradient2481);fill-opacity:1;fill-rule:nonzero;stroke:#878f9d;stroke-width:.3644999;stroke-linecap:butt;stroke-linejoin:miter;marker:none;marker-start:none;marker-mid:none;marker-end:none;stroke-miterlimit:4;stroke-dasharray:none;stroke-dashoffset:0;stroke-opacity:1;visibility:visible;display:inline;overflow:visible" id="path2144" d="M 8.6225995,10.252167 C 8.9264252,9.9917451 13.464557,5.3501854 13.464557,5.3501854 L 14.58501,5.2701528 L 16.345722,2.8291647 L 14.878855,1.5223623 L 12.597932,3.4831559 L 12.597932,4.6036092 L 7.9560559,9.4255585 C 7.7359671,9.6456473 8.3424864,10.492264 8.6225995,10.252167 z"/><path id="path3085" d="M 8.5873134,9.8731142 C 8.8230621,9.6710438 13.334708,5.0508496 13.334708,5.0508496 L 14.402176,4.960454 L 15.938148,2.8966313 L 14.884841,1.9675246 L 12.888629,3.6870433 L 12.94522,4.7262164 L 8.32478,9.5712682 C 8.1540052,9.742043 8.3699638,10.059414 8.5873134,9.8731142 z" style="opacity:.53977272;fill:none;fill-opacity:1;fill-rule:nonzero;stroke:url(#linearGradient2478);stroke-width:.36450008;stroke-linecap:butt;stroke-linejoin:miter;marker:none;marker-start:none;marker-mid:none;marker-end:none;stroke-miterlimit:4;stroke-dasharray:none;stroke-dashoffset:0;stroke-opacity:1;visibility:visible;display:inline;overflow:visible"/><path style="fill:url(#linearGradient2475);fill-opacity:1;fill-rule:nonzero;stroke:#204a87;stroke-width:.3644999;stroke-linecap:butt;stroke-linejoin:miter;marker:none;marker-start:none;marker-mid:none;marker-end:none;stroke-miterlimit:4;stroke-dashoffset:0;stroke-opacity:1;visibility:visible;display:inline;overflow:visible" id="path2142" d="M 3.507395,15.16788 C 3.9872911,15.701956 5.3203031,15.943596 5.9114343,14.909116 C 6.1691748,14.458071 6.6746765,13.194945 8.9299055,11.165239 C 9.3086742,10.824734 9.7099023,10.045809 9.3697647,9.6256395 L 8.4894087,8.7452835 C 8.1292633,8.3451219 7.1282148,8.5317779 6.7175104,9.0918778 C 5.4932434,10.76719 3.4931169,12.100782 3.0420711,12.261869 C 2.1789644,12.570122 2.2761069,13.842396 2.8471281,14.447589 L 3.507395,15.16788 z"/><path style="fill:#fff;fill-opacity:1;fill-rule:nonzero;stroke:#a1a1a1;stroke-width:1.13860166;stroke-linecap:butt;stroke-linejoin:miter;marker:none;marker-start:none;marker-mid:none;marker-end:none;stroke-miterlimit:4;stroke-dasharray:none;stroke-dashoffset:0;stroke-opacity:1;visibility:visible;display:inline;overflow:visible" id="path2146" d="M 43.25,37.5 A 1.375,1.375 0 1 1 40.5,37.5 A 1.375,1.375 0 1 1 43.25,37.5 z" transform="matrix(0.3201294,0,0,0.3201294,1.306505,1.1222015)"/><path style="opacity:.60227272;fill:#fff;fill-opacity:1;fill-rule:nonzero;stroke:none;stroke-width:1;stroke-linecap:butt;stroke-linejoin:miter;marker:none;marker-start:none;marker-mid:none;marker-end:none;stroke-miterlimit:4;stroke-dasharray:none;stroke-dashoffset:0;stroke-opacity:1;visibility:visible;display:inline;overflow:visible" id="path3101" d="M 20.771261,28.20101 A 1.767767,1.767767 0 1 1 17.235727,28.20101 A 1.767767,1.767767 0 1 1 20.771261,28.20101 z" transform="matrix(0.2080843,0,0,0.2080843,3.7587312,3.3724955)"/><path style="fill:none;fill-opacity:1;fill-rule:nonzero;stroke:url(#linearGradient2470);stroke-width:.83634859;stroke-linecap:round;stroke-linejoin:round;marker:none;marker-start:none;marker-mid:none;marker-end:none;stroke-miterlimit:4;stroke-dasharray:none;stroke-dashoffset:0;stroke-opacity:1;visibility:visible;display:inline;overflow:visible" id="path3103" d="M 7.23025,10.069708 C 7.23025,10.069708 4.6168247,12.730417 3.3925579,13.181463"/><path id="path2270" d="M 3.6315766,14.757864 C 4.1569179,15.394142 5.3081066,15.545632 5.6695543,14.622785 C 5.9178907,13.988733 6.8846595,12.557605 8.6575737,10.961983 C 8.955337,10.694299 9.2707567,10.08196 9.0033624,9.7516494 L 8.3112837,9.0595707 C 8.0281609,8.7449897 7.2412017,8.8917264 6.9183324,9.3320406 C 5.9558935,10.649063 3.8261533,12.371808 3.3113317,12.541691 C 2.514245,12.804718 2.663618,13.715855 3.1125176,14.191618 L 3.6315766,14.757864 z" style="opacity:.19886367;fill:none;fill-opacity:1;fill-rule:nonzero;stroke:#fff;stroke-width:.36449981;stroke-linecap:butt;stroke-linejoin:miter;marker:none;marker-start:none;marker-mid:none;marker-end:none;stroke-miterlimit:4;stroke-dasharray:none;stroke-dashoffset:0;stroke-opacity:1;visibility:visible;display:inline;overflow:visible"/><path style="opacity:.27840911;fill:none;fill-opacity:1;fill-rule:nonzero;stroke:url(#linearGradient2466);stroke-width:.83634859;stroke-linecap:round;stroke-linejoin:round;marker:none;marker-start:none;marker-mid:none;marker-end:none;stroke-miterlimit:4;stroke-dashoffset:0;stroke-opacity:1;visibility:visible;display:inline;overflow:visible" id="path2247" d="M 8.0123565,10.666109 C 8.0123565,10.666109 5.3432094,13.078153 4.7632936,14.624596"/></g></svg>