<svg xmlns="http://www.w3.org/2000/svg" xmlns:svg="http://www.w3.org/2000/svg" xmlns:xlink="http://www.w3.org/1999/xlink" id="svg14603" width="18" height="18" version="1.0"><defs id="defs3"><linearGradient id="linearGradient5060"><stop style="stop-color:black;stop-opacity:1" id="stop5062" offset="0"/><stop style="stop-color:black;stop-opacity:0" id="stop5064" offset="1"/></linearGradient><linearGradient id="linearGradient5048"><stop style="stop-color:black;stop-opacity:0" id="stop5050" offset="0"/><stop id="stop5056" offset=".5" style="stop-color:black;stop-opacity:1"/><stop style="stop-color:black;stop-opacity:0" id="stop5052" offset="1"/></linearGradient><linearGradient id="linearGradient7844"><stop id="stop7846" offset="0" style="stop-color:#000;stop-opacity:1"/><stop id="stop7848" offset="1" style="stop-color:#000;stop-opacity:0"/></linearGradient><linearGradient id="linearGradient7834"><stop id="stop7836" offset="0" style="stop-color:#fff;stop-opacity:1"/><stop id="stop7838" offset="1" style="stop-color:#fff;stop-opacity:0"/></linearGradient><linearGradient id="linearGradient7670"><stop id="stop7672" offset="0" style="stop-color:#dfdfdf;stop-opacity:1"/><stop id="stop7674" offset="1" style="stop-color:silver;stop-opacity:1"/></linearGradient><radialGradient id="radialGradient7850" cx="24.547" cy="37.595" r="22.728" fx="24.547" fy="37.595" gradientTransform="matrix(1,0,0,0.333333,0,25.06362)" gradientUnits="userSpaceOnUse" xlink:href="#linearGradient7844"/><linearGradient id="aigrd1" x1="14.997" x2="32.511" y1="11.188" y2="34.307" gradientUnits="userSpaceOnUse"><stop style="stop-color:#ebebeb" id="stop3034" offset="0"/><stop style="stop-color:#fff" id="stop3036" offset=".5"/><stop style="stop-color:#ebebeb" id="stop3038" offset="1"/></linearGradient><linearGradient id="aigrd2" x1="12.274" x2="35.391" y1="32.416" y2="14.203" gradientUnits="userSpaceOnUse"><stop style="stop-color:#fbfbfb" id="stop3043" offset="0"/><stop style="stop-color:#b6b6b6" id="stop3045" offset=".5"/><stop style="stop-color:#e4e4e4" id="stop3047" offset="1"/></linearGradient><linearGradient id="linearGradient4236"><stop style="stop-color:#fff;stop-opacity:.32673267" id="stop4238" offset="0"/><stop style="stop-color:#fff;stop-opacity:.60396039" id="stop4240" offset="1"/></linearGradient><linearGradient id="linearGradient6028"><stop style="stop-color:#fff;stop-opacity:1" id="stop6030" offset="0"/><stop style="stop-color:#fff;stop-opacity:0" id="stop6032" offset="1"/></linearGradient><linearGradient id="linearGradient6036"><stop style="stop-color:#fff;stop-opacity:1" id="stop6038" offset="0"/><stop style="stop-color:#fff;stop-opacity:0" id="stop6040" offset="1"/></linearGradient><linearGradient id="linearGradient3394" x1="12.274" x2="35.391" y1="32.416" y2="14.203" gradientUnits="userSpaceOnUse"><stop id="stop3396" offset="0" style="stop-color:#fff307;stop-opacity:1"/><stop id="stop3398" offset=".5" style="stop-color:#166eff;stop-opacity:1"/><stop id="stop3400" offset="1" style="stop-color:#fff;stop-opacity:0"/></linearGradient><linearGradient id="linearGradient3130" x1="302.857" x2="302.857" y1="366.648" y2="609.505" gradientTransform="matrix(2.774389,0,0,1.969706,-1892.179,-872.8854)" gradientUnits="userSpaceOnUse" xlink:href="#linearGradient5048"/><radialGradient id="radialGradient3132" cx="605.714" cy="486.648" r="117.143" fx="605.714" fy="486.648" gradientTransform="matrix(2.774389,0,0,1.969706,-1891.633,-872.8854)" gradientUnits="userSpaceOnUse" xlink:href="#linearGradient5060"/><radialGradient id="radialGradient3134" cx="605.714" cy="486.648" r="117.143" fx="605.714" fy="486.648" gradientTransform="matrix(-2.774389,0,0,1.969706,112.7623,-872.8854)" gradientUnits="userSpaceOnUse" xlink:href="#linearGradient5060"/><radialGradient id="radialGradient3140" cx="24.547" cy="37.595" r="22.728" fx="24.547" fy="37.595" gradientTransform="matrix(1,0,0,0.333333,0,25.06362)" gradientUnits="userSpaceOnUse" xlink:href="#linearGradient7844"/><linearGradient id="linearGradient3142" x1="14.997" x2="32.511" y1="11.188" y2="34.307" gradientTransform="matrix(0.683145,0,0,0.683145,18.55581,18.12886)" gradientUnits="userSpaceOnUse" xlink:href="#aigrd1"/><linearGradient id="linearGradient3144" x1="12.274" x2="35.391" y1="32.416" y2="14.203" gradientTransform="matrix(0.705308,0,0,0.705308,18.02392,17.61692)" gradientUnits="userSpaceOnUse" xlink:href="#aigrd2"/><linearGradient id="linearGradient3146" x1="21.125" x2="29" y1="14.625" y2="28" gradientTransform="matrix(0.717302,0,0,0.717302,17.73603,18.06909)" gradientUnits="userSpaceOnUse" xlink:href="#linearGradient4236"/><linearGradient id="linearGradient3148" x1="21.125" x2="29" y1="14.625" y2="28" gradientTransform="matrix(0.717302,0,0,0.717302,17.73603,18.06909)" gradientUnits="userSpaceOnUse" xlink:href="#linearGradient4236"/><linearGradient id="linearGradient3150" x1="10.502" x2="48.799" y1="3.61" y2="54.698" gradientTransform="matrix(0.573842,0,0,0.573842,20.97995,19.56347)" gradientUnits="userSpaceOnUse" xlink:href="#linearGradient6036"/><linearGradient id="linearGradient3152" x1="28.703" x2="17.743" y1="31.495" y2="18.367" gradientUnits="userSpaceOnUse" xlink:href="#linearGradient6028"/><radialGradient id="radialGradient3154" cx="37.751" cy="27.569" r="21.333" fx="37.751" fy="27.569" gradientTransform="matrix(0.441746,0.498655,-0.407098,0.360624,32.00755,10.21308)" gradientUnits="userSpaceOnUse" xlink:href="#linearGradient3394"/><linearGradient id="linearGradient3168" x1="19.363" x2="19.324" y1="11.312" y2=".504" gradientTransform="matrix(0.37,0,0,0.37,-0.3541177,-7.6701598e-2)" gradientUnits="userSpaceOnUse" xlink:href="#linearGradient7834"/><linearGradient id="linearGradient3174" x1="64.571" x2="72.857" y1="9.714" y2="40.857" gradientTransform="matrix(0.3731491,0,0,0.37,-17.224549,-0.1824156)" gradientUnits="userSpaceOnUse" xlink:href="#linearGradient7670"/><linearGradient id="linearGradient2474" x1="302.857" x2="302.857" y1="366.648" y2="609.505" gradientTransform="matrix(2.774389,0,0,1.969706,-1892.179,-872.8854)" gradientUnits="userSpaceOnUse" xlink:href="#linearGradient5048"/><radialGradient id="radialGradient2476" cx="605.714" cy="486.648" r="117.143" fx="605.714" fy="486.648" gradientTransform="matrix(2.774389,0,0,1.969706,-1891.633,-872.8854)" gradientUnits="userSpaceOnUse" xlink:href="#linearGradient5060"/><radialGradient id="radialGradient2478" cx="605.714" cy="486.648" r="117.143" fx="605.714" fy="486.648" gradientTransform="matrix(-2.774389,0,0,1.969706,112.7623,-872.8854)" gradientUnits="userSpaceOnUse" xlink:href="#linearGradient5060"/><linearGradient id="linearGradient2480" x1="64.571" x2="72.857" y1="9.714" y2="40.857" gradientTransform="matrix(0.3731491,0,0,0.37,-17.224549,-0.1824156)" gradientUnits="userSpaceOnUse" xlink:href="#linearGradient7670"/><linearGradient id="linearGradient2482" x1="19.363" x2="19.324" y1="11.312" y2=".504" gradientTransform="matrix(0.37,0,0,0.37,-0.3541177,-7.6701598e-2)" gradientUnits="userSpaceOnUse" xlink:href="#linearGradient7834"/><radialGradient id="radialGradient2484" cx="24.547" cy="37.595" r="22.728" fx="24.547" fy="37.595" gradientTransform="matrix(1,0,0,0.333333,0,25.06362)" gradientUnits="userSpaceOnUse" xlink:href="#linearGradient7844"/><linearGradient id="linearGradient2486" x1="14.997" x2="32.511" y1="11.188" y2="34.307" gradientTransform="matrix(0.683145,0,0,0.683145,18.55581,18.12886)" gradientUnits="userSpaceOnUse" xlink:href="#aigrd1"/><linearGradient id="linearGradient2488" x1="12.274" x2="35.391" y1="32.416" y2="14.203" gradientTransform="matrix(0.705308,0,0,0.705308,18.02392,17.61692)" gradientUnits="userSpaceOnUse" xlink:href="#aigrd2"/><linearGradient id="linearGradient2490" x1="21.125" x2="29" y1="14.625" y2="28" gradientTransform="matrix(0.717302,0,0,0.717302,17.73603,18.06909)" gradientUnits="userSpaceOnUse" xlink:href="#linearGradient4236"/><linearGradient id="linearGradient2492" x1="21.125" x2="29" y1="14.625" y2="28" gradientTransform="matrix(0.717302,0,0,0.717302,17.73603,18.06909)" gradientUnits="userSpaceOnUse" xlink:href="#linearGradient4236"/><linearGradient id="linearGradient2494" x1="10.502" x2="48.799" y1="3.61" y2="54.698" gradientTransform="matrix(0.573842,0,0,0.573842,20.97995,19.56347)" gradientUnits="userSpaceOnUse" xlink:href="#linearGradient6036"/><linearGradient id="linearGradient2496" x1="28.703" x2="17.743" y1="31.495" y2="18.367" gradientUnits="userSpaceOnUse" xlink:href="#linearGradient6028"/><radialGradient id="radialGradient2498" cx="37.751" cy="27.569" r="21.333" fx="37.751" fy="27.569" gradientTransform="matrix(0.441746,0.498655,-0.407098,0.360624,32.00755,10.21308)" gradientUnits="userSpaceOnUse" xlink:href="#linearGradient3394"/></defs><metadata id="metadata4"/><g id="layer1"><g id="g2451" transform="matrix(1.1025,0,0,1.1025,-1.1960416,-1.3202717)"><path style="fill:#6b6c69;fill-opacity:1;fill-rule:evenodd;stroke:#606060;stroke-width:.37;stroke-linecap:round;stroke-linejoin:round;marker:none;marker-start:none;marker-mid:none;marker-end:none;stroke-miterlimit:4;stroke-dasharray:none;stroke-dashoffset:0;stroke-opacity:1;visibility:visible;display:inline;overflow:visible" id="path7822" d="M 3.0004323,3.5613724 L 4.5087393,1.9847274 L 13.230168,1.9847274 L 14.828707,3.5987484 L 3.0004323,3.5613724 z"/><g id="g5022" transform="matrix(7.467636e-3,0,0,7.7210046e-3,15.590721,13.722981)"><rect style="opacity:.40206185;fill:url(#linearGradient2474);fill-opacity:1;fill-rule:nonzero;stroke:none;stroke-width:1;stroke-linecap:round;stroke-linejoin:miter;marker:none;marker-start:none;marker-mid:none;marker-end:none;stroke-miterlimit:4;stroke-dasharray:none;stroke-dashoffset:0;stroke-opacity:1;visibility:visible;display:inline;overflow:visible" id="rect4173" width="1339.633" height="478.357" x="-1559.252" y="-150.697"/><path style="opacity:.40206185;fill:url(#radialGradient2476);fill-opacity:1;fill-rule:nonzero;stroke:none;stroke-width:1;stroke-linecap:round;stroke-linejoin:miter;marker:none;marker-start:none;marker-mid:none;marker-end:none;stroke-miterlimit:4;stroke-dasharray:none;stroke-dashoffset:0;stroke-opacity:1;visibility:visible;display:inline;overflow:visible" id="path5058" d="M -219.61876,-150.68038 C -219.61876,-150.68038 -219.61876,327.65041 -219.61876,327.65041 C -76.744594,328.55086 125.78146,220.48075 125.78138,88.454235 C 125.78138,-43.572302 -33.655436,-150.68036 -219.61876,-150.68038 z"/><path id="path5018" d="M -1559.2523,-150.68038 C -1559.2523,-150.68038 -1559.2523,327.65041 -1559.2523,327.65041 C -1702.1265,328.55086 -1904.6525,220.48075 -1904.6525,88.454235 C -1904.6525,-43.572302 -1745.2157,-150.68036 -1559.2523,-150.68038 z" style="opacity:.40206185;fill:url(#radialGradient2478);fill-opacity:1;fill-rule:nonzero;stroke:none;stroke-width:1;stroke-linecap:round;stroke-linejoin:miter;marker:none;marker-start:none;marker-mid:none;marker-end:none;stroke-miterlimit:4;stroke-dasharray:none;stroke-dashoffset:0;stroke-opacity:1;visibility:visible;display:inline;overflow:visible"/></g><rect style="fill:url(#linearGradient2480);fill-opacity:1;fill-rule:evenodd;stroke:#606060;stroke-width:.37000003;stroke-linecap:butt;stroke-linejoin:miter;marker:none;marker-start:none;marker-mid:none;marker-end:none;stroke-miterlimit:4;stroke-dasharray:none;stroke-dashoffset:0;stroke-opacity:1;visibility:visible;display:inline;overflow:visible" id="rect6910" width="12.154" height="11.523" x="2.819" y="3.412" rx=".529" ry=".529"/><path style="fill:#a40000;fill-opacity:1;fill-rule:evenodd;stroke:none;stroke-width:1;stroke-linecap:butt;stroke-linejoin:miter;marker:none;marker-start:none;marker-mid:none;marker-end:none;stroke-miterlimit:4;stroke-dasharray:1,1;stroke-dashoffset:0;stroke-opacity:1;visibility:visible;display:inline;overflow:visible" id="rect7826" d="M 14.763025,8.3430654 L 14.763025,14.421637 C 14.763025,14.597334 14.628666,14.73878 14.461772,14.73878 L 6.2594373,14.73878 L 6.2777113,8.3430654 C 6.2777113,8.3430654 14.763025,8.3430654 14.763025,8.3430654 z"/><path style="fill:none;fill-opacity:1;fill-rule:evenodd;stroke:#606060;stroke-width:.37;stroke-linecap:butt;stroke-linejoin:miter;marker:none;marker-start:none;marker-mid:none;marker-end:none;stroke-miterlimit:4;stroke-dasharray:.37,.37;stroke-dashoffset:0;stroke-opacity:1;visibility:visible;display:inline;overflow:visible" id="path7824" d="M 6.0763153,4.0990124 L 6.0763153,14.459012"/><path id="path10582" d="M 14.763025,8.2902094 L 14.763025,4.1673514 C 14.763025,3.9916544 14.628666,3.8502084 14.461772,3.8502084 L 6.2594373,3.8502084 L 6.2777113,8.2902094 C 6.2777113,8.2902094 14.763025,8.2902094 14.763025,8.2902094 z" style="fill:#f0f0f0;fill-opacity:1;fill-rule:evenodd;stroke:none;stroke-width:1;stroke-linecap:butt;stroke-linejoin:miter;marker:none;marker-start:none;marker-mid:none;marker-end:none;stroke-miterlimit:4;stroke-dasharray:1,1;stroke-dashoffset:0;stroke-opacity:1;visibility:visible;display:inline;overflow:visible"/><path style="opacity:.62566845;fill:none;fill-opacity:1;fill-rule:evenodd;stroke:url(#linearGradient2482);stroke-width:.36999997;stroke-linecap:butt;stroke-linejoin:miter;marker:none;marker-start:none;marker-mid:none;marker-end:none;stroke-miterlimit:4;stroke-dashoffset:0;stroke-opacity:1;visibility:visible;display:inline;overflow:visible" id="rect7829" d="M 4.6456673,2.3384614 C 4.6456673,2.3384614 13.071349,2.3384614 13.071349,2.3384614 C 13.071349,2.3384614 14.646439,3.9135514 14.646439,3.9135514 L 14.646439,14.433042 C 14.646439,14.539515 14.560722,14.625232 14.454248,14.625232 L 3.3375193,14.625232 C 3.2310463,14.625232 3.1453293,14.539515 3.1453293,14.433042 L 3.1453293,3.9135514 C 3.1453293,3.9135514 4.6456673,2.3384614 4.6456673,2.3384614 z"/><g id="g10554" transform="matrix(0.37,0,0,0.37,1.5883271e-2,-0.1824156)"><path style="opacity:.62566845;fill:url(#radialGradient2484);fill-opacity:1;fill-rule:evenodd;stroke:none;stroke-width:1;stroke-linecap:round;stroke-linejoin:round;marker:none;marker-start:none;marker-mid:none;marker-end:none;stroke-miterlimit:4;stroke-dasharray:1,1;stroke-dashoffset:0;stroke-opacity:1;visibility:visible;display:inline;overflow:visible" id="path10170" d="M 47.275139,37.595428 A 22.728432,7.5761442 0 1 1 1.8182755,37.595428 A 22.728432,7.5761442 0 1 1 47.275139,37.595428 z" transform="matrix(0.55024,0,0,0.55024,19.89726,20.62321)"/><g id="g10156" transform="translate(-1.642857,-2.642857)"><path id="path3040" d="M 34.951289,21.954475 C 28.32478,21.954475 22.996247,27.283008 22.996247,33.909517 C 22.996247,40.536026 28.32478,45.864559 34.951289,45.864559 C 41.577799,45.864559 46.906332,40.536026 46.906332,33.909517 C 46.906332,27.283008 41.577799,21.954475 34.951289,21.954475 L 34.951289,21.954475 z M 34.951289,36.778727 C 33.380055,36.778727 32.082079,35.480751 32.082079,33.909517 C 32.082079,32.338283 33.380055,31.040307 34.951289,31.040307 C 36.522523,31.040307 37.820499,32.338283 37.820499,33.909517 C 37.820499,35.480751 36.522523,36.778727 34.951289,36.778727 z" style="fill:url(#linearGradient2486);fill-rule:nonzero;stroke:none;stroke-miterlimit:4"/><path id="path3049" d="M 34.951305,21.566644 C 28.109819,21.566644 22.608417,27.068045 22.608417,33.909532 C 22.608417,40.751018 28.109819,46.252419 34.951305,46.252419 C 41.792792,46.252419 47.294193,40.751018 47.294193,33.909532 C 47.294193,27.068045 41.792792,21.566644 34.951305,21.566644 L 34.951305,21.566644 z M 34.951305,36.871824 C 33.329097,36.871824 31.989012,35.53174 31.989012,33.909532 C 31.989012,32.287324 33.329097,30.947239 34.951305,30.947239 C 36.573513,30.947239 37.913598,32.287324 37.913598,33.909532 C 37.913598,35.53174 36.573513,36.871824 34.951305,36.871824 z" style="fill:url(#linearGradient2488);fill-rule:nonzero;stroke:gray;stroke-miterlimit:4;stroke-opacity:1"/><path id="path3051" d="M 34.951289,28.111323 C 31.713337,28.111323 29.153095,30.746866 29.153095,33.909517 C 29.153095,37.147471 31.788638,39.707712 34.951289,39.707712 C 38.189242,39.707712 40.749484,37.072169 40.749484,33.909517 C 40.749484,30.671564 38.11394,28.111323 34.951289,28.111323 L 34.951289,28.111323 z M 34.951289,37.072169 C 33.219361,37.072169 31.788638,35.641446 31.788638,33.909517 C 31.788638,32.177589 33.219361,30.746866 34.951289,30.746866 C 36.683217,30.746866 38.11394,32.177589 38.11394,33.909517 C 38.11394,35.641446 36.683217,37.072169 34.951289,37.072169 z" style="opacity:.10999995;fill-rule:nonzero;stroke:none;stroke-miterlimit:4"/><path style="fill:url(#linearGradient2490);fill-opacity:1;fill-rule:nonzero;stroke:none;stroke-miterlimit:4;stroke-opacity:1" id="path3916" d="M 38.150519,22.816711 L 36.086643,30.847436 C 36.732045,31.019312 37.248181,31.418679 37.59879,31.97133 L 44.709966,27.639233 C 43.255134,25.269429 40.920193,23.525895 38.150519,22.816711 z"/><path id="path4214" d="M 30.911911,44.678269 L 33.629199,36.844465 C 33.000117,36.620097 32.518571,36.179639 32.214597,35.600027 L 24.771257,39.332667 C 26.026282,41.814082 28.209936,43.743724 30.911911,44.678269 z" style="fill:url(#linearGradient2492);fill-opacity:1;fill-rule:nonzero;stroke:none;stroke-miterlimit:4;stroke-opacity:1"/><path style="opacity:.54644811;fill:none;fill-rule:nonzero;stroke:url(#linearGradient2494);stroke-miterlimit:4;stroke-opacity:1" id="path5264" d="M 34.951287,22.548803 C 28.654207,22.548803 23.590575,27.612435 23.590575,33.909515 C 23.590575,40.206596 28.654207,45.270227 34.951287,45.270227 C 41.248368,45.270227 46.311999,40.206596 46.311999,33.909515 C 46.311999,27.612435 41.248368,22.548803 34.951287,22.548803 L 34.951287,22.548803 z"/><path style="opacity:.67213111;fill:none;fill-opacity:.31638417;fill-rule:nonzero;stroke:url(#linearGradient2496);stroke-width:1.62159407;stroke-linecap:butt;stroke-linejoin:miter;marker:none;marker-start:none;marker-mid:none;marker-end:none;stroke-miterlimit:4;stroke-dashoffset:0;stroke-opacity:1;visibility:visible;display:inline;overflow:visible" id="path6026" d="M 30.405591,24.930641 A 6.0987959,6.0987959 0 1 1 18.207999,24.930641 A 6.0987959,6.0987959 0 1 1 30.405591,24.930641 z" transform="matrix(0.573842,0,0,0.573842,21.03068,19.61419)"/><path style="opacity:.11428564;fill:url(#radialGradient2498);fill-opacity:1;fill-rule:nonzero;stroke:none;stroke-miterlimit:4;stroke-opacity:1" id="path3390" d="M 34.951289,23.065643 C 28.940684,23.065643 24.107415,27.898912 24.107415,33.909517 C 24.107415,39.920122 28.940684,44.753391 34.951289,44.753391 C 40.961895,44.753391 45.795164,39.920122 45.795164,33.909517 C 45.795164,27.898912 40.961895,23.065643 34.951289,23.065643 L 34.951289,23.065643 z M 34.951289,36.512047 C 33.526094,36.512047 32.348759,35.334712 32.348759,33.909517 C 32.348759,32.484322 33.526094,31.306987 34.951289,31.306987 C 36.376484,31.306987 37.553819,32.484322 37.553819,33.909517 C 37.553819,35.334712 36.376484,36.512047 34.951289,36.512047 z"/></g></g></g></g></svg>